<?xml version="1.0" encoding="iso-8859-1"?>
<!-- Generator: Adobe Illustrator 19.0.0, SVG Export Plug-In . SVG Version: 6.00 Build 0)  -->
<svg version="1.1" id="Layer_1" xmlns="http://www.w3.org/2000/svg" xmlns:xlink="http://www.w3.org/1999/xlink" x="0px" y="0px"
	 viewBox="0 0 512 512" style="enable-background:new 0 0 512 512;" xml:space="preserve">
<path style="fill:#CCCCCC;" d="M485.643,269.204v144.298c0,10.807-8.766,19.585-19.585,19.585H45.931
	c-10.819,0-19.585-8.778-19.585-19.585V269.204h46.047v47.554h64.484v-47.554h76.126h85.983h76.126v47.554h64.496v-47.554H485.643z"
	/>
<path style="fill:#E6E6E6;" d="M503.303,178.305v90.899h-17.66h-46.035v-37.883h-64.496v37.883h-76.126h-85.983h-76.126v-37.883
	H72.392v37.883H26.346H8.697v-90.899c0-17.881,14.495-32.387,32.387-32.387h127.635h174.563h127.623
	C488.797,145.918,503.303,160.424,503.303,178.305z"/>
<rect x="26.404" y="269.208" style="fill:#999999;" width="459.239" height="31.169"/>
<polygon style="fill:#35D8B9;" points="439.608,269.204 439.608,316.758 375.112,316.758 375.112,269.204 375.112,231.321 
	439.608,231.321 "/>
<rect x="395.984" y="252.197" style="fill:#2BBFA3;" width="22.751" height="43.693"/>
<polygon style="fill:#35D8B9;" points="136.877,269.204 136.877,316.758 72.392,316.758 72.392,269.204 72.392,231.321 
	136.877,231.321 "/>
<rect x="93.265" y="252.197" style="fill:#2BBFA3;" width="22.739" height="43.693"/>
<path style="fill:#FFFFFF;" d="M474.314,248.911c-4.803,0-8.697-3.894-8.697-8.697v-58.402c-2.073-1.59-3.409-4.091-3.409-6.905
	c0-4.803,3.894-8.697,8.697-8.697c6.676,0,12.106,5.426,12.106,12.094v61.91C483.011,245.018,479.117,248.911,474.314,248.911z"/>
<path style="fill:#333333;" d="M470.905,137.221H351.974v-35.528c0-17.357-14.12-31.477-31.477-31.477H191.494
	c-17.357,0-31.477,14.12-31.477,31.477v35.528H41.084C18.43,137.221,0,155.651,0,178.305v90.899c0,4.803,3.894,8.697,8.697,8.697
	h8.952v135.601c0,15.595,12.687,28.282,28.282,28.282h420.127c15.595,0,28.282-12.687,28.282-28.282V277.901h8.964
	c4.803,0,8.697-3.894,8.697-8.697v-90.899C512,155.651,493.565,137.221,470.905,137.221z M177.413,101.693
	c0-7.765,6.317-14.083,14.083-14.083h129.003c7.765,0,14.083,6.317,14.083,14.083v35.528H177.413V101.693z M476.946,413.502
	c0,6.004-4.884,10.888-10.888,10.888H45.931c-6.003,0-10.888-4.884-10.888-10.888V277.901h28.653v38.857
	c0,4.803,3.894,8.697,8.697,8.697h64.484c4.803,0,8.697-3.894,8.697-8.697v-38.857h220.842v38.857c0,4.803,3.894,8.697,8.697,8.697
	h64.496c4.803,0,8.697-3.894,8.697-8.697v-38.857h28.642V413.502z M81.089,308.062v-68.044h47.09v68.044H81.089z M383.809,308.062
	v-68.044h47.102v68.044H383.809z M494.606,260.507h-46.302v-29.187c0-4.803-3.894-8.697-8.697-8.697h-64.496
	c-4.803,0-8.697,3.894-8.697,8.697v29.187H145.573v-29.187c0-4.803-3.894-8.697-8.697-8.697H72.392
	c-4.803,0-8.697,3.894-8.697,8.697v29.187H17.394v-82.202c0-13.063,10.628-23.69,23.69-23.69h429.821
	c13.07,0,23.702,10.628,23.702,23.69V260.507z"/>
<path style="fill:#FFFFFF;" d="M459.083,411.318c-4.803,0-8.697-3.894-8.697-8.697v-62.034c0-4.803,3.894-8.697,8.697-8.697
	c4.803,0,8.697,3.894,8.697,8.697v62.034C467.78,407.425,463.886,411.318,459.083,411.318z"/>
<g>
</g>
<g>
</g>
<g>
</g>
<g>
</g>
<g>
</g>
<g>
</g>
<g>
</g>
<g>
</g>
<g>
</g>
<g>
</g>
<g>
</g>
<g>
</g>
<g>
</g>
<g>
</g>
<g>
</g>
</svg>
